<svg enable-background="new 0 0 48 48" version="1.1" viewBox="0 0 48 48" xmlns="http://www.w3.org/2000/svg"><defs><filter id="a" color-interpolation-filters="sRGB"><feFlood flood-color="#000" flood-opacity=".196" result="flood"/><feComposite in="flood" in2="SourceGraphic" operator="in" result="composite1"/><feGaussianBlur in="composite1" result="blur" stdDeviation="1"/><feOffset dx="0" dy="1" result="offset"/><feComposite in="SourceGraphic" in2="offset" result="composite2"/></filter></defs><path d="M24 3C12.402 3 3 12.402 3 24s9.402 21 21 21 21-9.402 21-21S35.598 3 24 3zm16.872 19H26V7.128c7.788.914 13.958 7.084 14.872 14.872zM22 7.128V22H7.128C8.042 14.212 14.212 8.042 22 7.128zM7.128 26H22v14.872C14.212 39.958 8.042 33.788 7.128 26zM26 40.872V26h14.872C39.958 33.788 33.788 39.958 26 40.872z" fill="#cf8800" filter="url(#a)"/></svg>