<svg width="48" height="48" version="1" xmlns="http://www.w3.org/2000/svg" xmlns:xlink="http://www.w3.org/1999/xlink">
<defs>
<filter id="a" color-interpolation-filters="sRGB">
<feFlood flood-opacity=".196" result="flood"/>
<feComposite in="flood" in2="SourceGraphic" operator="in" result="composite1"/>
<feGaussianBlur in="composite1" result="blur" stdDeviation="1"/>
<feOffset dx="0" dy="1" result="offset"/>
<feComposite in="SourceGraphic" in2="offset" result="composite2"/>
</filter>
<linearGradient id="linearGradient906" x2="48" y1="27" y2="27" gradientTransform="matrix(.54525 0 0 1.834 7.5 5)" gradientUnits="userSpaceOnUse">
<stop stop-color="#6DBD00" offset="0"/>
<stop stop-color="#8FBF12" offset="1"/>
</linearGradient>
</defs>
<path d="m6 7c-1.108 0-2 0.892-2 2v32c0 1.108 0.892 2 2 2h36c1.108 0 2-0.892 2-2v-32c0-1.108-0.892-2-2-2z" filter="url(#a)" opacity=".2"/>
<path d="m6 6c-1.108 0-2 0.892-2 2v32c0 1.108 0.892 2 2 2h36c1.108 0 2-0.892 2-2v-32c0-1.108-0.892-2-2-2z" fill="#4f4f4f" filter="url(#a)"/>
<g filter="url(#a)" stroke-width="0">
<path d="m4 10h40v2h-40zm0 10h40v2h-40zm0-5h40v2h-40zm0 11h40v2h-40z" opacity=".2"/>
</g>
<path d="m11 12c7 0 4.665 14.928 12 15 4.561 0.045 8.294-5 13-5s8 5 8 5v13c0 1.108-0.892 2-2 2h-36c-1.108 0-2-0.892-2-2v-19s1.48-9 7-9z" fill="url(#linearGradient906)" filter="url(#a)"/>
<path d="m6 6c-1.108 0-2 0.892-2 2v1c0-1.108 0.892-2 2-2h36c1.108 0 2 0.892 2 2v-1c0-1.108-0.892-2-2-2z" fill="#fff" filter="url(#a)" opacity=".1"/>
<path d="m11 12c7 0 4.665 14.928 12 15 4.561 0.045 8.294-5 13-5s8 5 8 5v1s-3.294-5-8-5-8.439 5.045-13 5c-7.335-0.072-5-15-12-15-5.52 0-7 9-7 9v-1s1.48-9 7-9z" fill="#fff" filter="url(#a)" opacity=".2"/>
</svg>
