<svg width="48" height="48" version="1" xmlns="http://www.w3.org/2000/svg"><defs><filter id="a" color-interpolation-filters="sRGB"><feFlood flood-color="#000" flood-opacity=".196" result="flood"/><feComposite in="flood" in2="SourceGraphic" operator="in" result="composite1"/><feGaussianBlur in="composite1" result="blur" stdDeviation="1"/><feOffset dx="0" dy="1" result="offset"/><feComposite in="SourceGraphic" in2="offset" result="composite2"/></filter></defs><g filter="url(#a)"><path d="M40 42V6c0-1.108-.892-2-2-2H10c-1.108 0-2 .892-2 2v36c0 1.108.892 2 2 2h28c1.108 0 2-.892 2-2z" fill="#395d6d"/><path d="M23.92 16.002L20.807 26.94l-2.313-5.791H14v2.004h3.186l3.113 7.842h1.38l3.704-12.977h6.393v-2.016H23.92zM25.418 22l3.256 4.293-3.56 4.709h1.777l2.668-3.537 2.668 3.537h1.777l-3.488-4.621L33.832 22h-1.777l-2.43 3.207L27.193 22h-1.775z" opacity=".2"/><path d="M23.92 15.002L20.807 25.94l-2.313-5.791H14v2.004h3.186l3.113 7.842h1.38l3.704-12.977h6.393v-2.016H23.92zm1.498 6l3.256 4.291-3.56 4.709h1.777l2.668-3.537 2.668 3.537h1.777l-3.488-4.621 3.316-4.379h-1.777l-2.43 3.205-2.432-3.205h-1.775z" fill="#ff6868"/><path d="M10 4c-1.108 0-2 .892-2 2v1c0-1.108.892-2 2-2h28c1.108 0 2 .892 2 2V6c0-1.108-.892-2-2-2z" fill="#fff" opacity=".1"/><path d="M8 42v1c0 1.108.892 2 2 2h28c1.108 0 2-.892 2-2v-1c0 1.108-.892 2-2 2H10c-1.108 0-2-.892-2-2z" opacity=".2"/></g></svg>