<svg width="48" height="48" version="1" xmlns="http://www.w3.org/2000/svg"><defs><filter id="a" color-interpolation-filters="sRGB"><feFlood flood-color="#000" flood-opacity=".196" result="flood"/><feComposite in="flood" in2="SourceGraphic" operator="in" result="composite1"/><feGaussianBlur in="composite1" result="blur" stdDeviation="1"/><feOffset dx="0" dy="1" result="offset"/><feComposite in="SourceGraphic" in2="offset" result="composite2"/></filter></defs><g filter="url(#a)"><rect x="4" y="5" width="40" height="40" rx="2" ry="2" opacity=".2"/><rect x="4" y="4" width="40" height="40" rx="2" ry="2" fill="#e4e4e4"/><path d="M6 4c-1.108 0-2 .892-2 2v1c0-1.108.892-2 2-2h36c1.108 0 2 .892 2 2V6c0-1.108-.892-2-2-2H6z" fill="#fff" opacity=".2"/><path d="M11 13l6.5 12L11 37h4l6.5-12L15 13zm7 0l6.5 12L18 37h4l4.5-8.301L31 37h4L22 13zm11.334 8l1.625 3H37v-3zm2.707 5l1.625 3H37v-3z" opacity=".1"/><path d="M18 12l6.5 12L18 36h4l4.5-8.301L31 36h4L22 12z" fill="#5f5088"/><path d="M11 12l6.5 12L11 36h4l6.5-12L15 12zm18.334 8l1.625 3H37v-3zm2.707 5l1.625 3H37v-3z" fill="#8b82a4"/></g></svg>