<svg width="48" height="48" version="1" xmlns="http://www.w3.org/2000/svg"><defs><filter id="a" color-interpolation-filters="sRGB"><feFlood flood-color="#000" flood-opacity=".196" result="flood"/><feComposite in="flood" in2="SourceGraphic" operator="in" result="composite1"/><feGaussianBlur in="composite1" result="blur" stdDeviation="1"/><feOffset dx="0" dy="1" result="offset"/><feComposite in="SourceGraphic" in2="offset" result="composite2"/></filter></defs><g filter="url(#a)"><rect transform="matrix(0 -1 -1 0 0 0)" x="-44" y="-44" width="40" height="40" rx="2" ry="2" fill="#e4e4e4"/><path d="M44 42V6c0-1.108-.892-2-2-2H24v40h18c1.108 0 2-.892 2-2z" opacity=".1"/><path d="M6 4c-1.108 0-2 .892-2 2v1c0-1.108.892-2 2-2h36c1.108 0 2 .892 2 2V6c0-1.108-.892-2-2-2H6z" fill="#fff" opacity=".2"/><path d="M6 45c-1.108 0-2-.892-2-2v-1c0 1.108.892 2 2 2h36c1.108 0 2-.892 2-2v1c0 1.108-.892 2-2 2H6z" opacity=".2"/><path d="M20 3c-1 0-1 1.029-1 1.029v16.97l2.5-1.542L24 21V4.029c0-1.03-1-1.03-1-1.03z" fill="#c2352a"/></g></svg>