<svg width="48" height="48" version="1" xmlns="http://www.w3.org/2000/svg">
<defs>
<filter id="a" color-interpolation-filters="sRGB">
<feFlood flood-opacity=".196" result="flood"/>
<feComposite in="flood" in2="SourceGraphic" operator="in" result="composite1"/>
<feGaussianBlur in="composite1" result="blur" stdDeviation="1"/>
<feOffset dx="0" dy="1" result="offset"/>
<feComposite in="SourceGraphic" in2="offset" result="composite2"/>
</filter>
</defs>
<path d="m32.46 4c-3.342 0-6.352 1.416-8.46 4-2.108-2.584-5.118-4-8.46-4-6.374 0-11.54 5.88-11.54 13.133 0 1.948 0.302 3.824 0.832 5.614 0 0 0.48 1.616 0.906 2.506 4.864 11.373 18.261 18.747 18.261 18.747s13.398-7.375 18.262-18.747 0.628-1.516 0.906-2.506c0.506-1.799 0.832-3.666 0.832-5.614 1e-3 -7.253-5.166-13.133-11.539-13.133z" fill="#ea004e" filter="url(#a)"/>
<path d="m15.54 4c-6.374 0-11.54 5.88-11.54 13.134 0 0.183 0.016 0.36 0.022 0.543 0.213-7.04 5.28-12.677 11.518-12.677 3.341 0 6.353 1.416 8.46 4 2.108-2.584 5.12-4 8.462-4 6.233 0 11.297 5.628 11.518 12.66 5e-3 -0.175 0.021-0.348 0.021-0.526 0-7.254-5.166-13.134-11.54-13.134-3.341 0-6.353 1.416-8.46 4-2.108-2.584-5.12-4-8.462-4z" fill="#fff" filter="url(#a)" opacity=".2"/>
<path d="m43.98 17.659c-0.052 1.758-0.35 3.453-0.81 5.088-0.279 0.99-0.907 2.504-0.907 2.504-4.865 11.373-18.262 18.749-18.262 18.749s-13.398-7.375-18.263-18.749c-0.425-0.89-0.906-2.504-0.906-2.504a19.87 19.87 0 0 1-0.81-5.072c-5e-3 0.153-0.022 0.303-0.022 0.457 0 1.949 0.302 3.824 0.832 5.615 0 0 0.48 1.614 0.907 2.504 4.864 11.374 18.261 18.749 18.261 18.749s13.4-7.376 18.264-18.749 0.628-1.514 0.906-2.504c0.506-1.799 0.832-3.666 0.832-5.615 0-0.16-0.017-0.315-0.021-0.473z" filter="url(#a)" opacity=".2"/>
</svg>
