<svg width="48" height="48" version="1" xmlns="http://www.w3.org/2000/svg"><defs><filter id="a" color-interpolation-filters="sRGB"><feFlood flood-color="#000" flood-opacity=".196" result="flood"/><feComposite in="flood" in2="SourceGraphic" operator="in" result="composite1"/><feGaussianBlur in="composite1" result="blur" stdDeviation="1"/><feOffset dx="0" dy="1" result="offset"/><feComposite in="SourceGraphic" in2="offset" result="composite2"/></filter></defs><g filter="url(#a)"><path d="M4 11v29c0 1.109.891 2 2 2h36.001A1.994 1.994 0 0 0 44 40V11z" fill="#c7c7c7"/><rect x="8" y="31" width="32" height="4" rx="1.523" ry="1.658" opacity=".2"/><path d="M6 6c-1.109 0-2 .891-2 2v3h40V8c0-1.109-.891-2-2-2H6z" fill="#5a6367"/><path d="M6 6c-1.109 0-2 .892-2 2v1c0-1.108.891-2 2-2h36c1.109 0 2 .892 2 2V8c0-1.108-.891-2-2-2H6z" fill="#fff" opacity=".1"/><path d="M4 40v1c0 1.109.891 2 2 2h36.002A1.994 1.994 0 0 0 44 41v-1c0 1.109-.89 2-1.998 2H6c-1.109 0-2-.891-2-2z" opacity=".2"/><rect x="8" y="30" width="32" height="4" rx="1.523" ry="1.658" fill="#fff"/><path d="M36 33c0 3.312-2.688 6-6 6s-6-2.688-6-6 2.688-6 6-6 6 2.688 6 6z" fill-rule="evenodd" opacity=".1"/><path d="M36 32c0 3.312-2.688 6-6 6s-6-2.688-6-6 2.688-6 6-6 6 2.688 6 6z" fill="#5294e2" fill-rule="evenodd"/><circle cx="10" cy="17" r="2" opacity=".2"/><circle cx="10" cy="16" r="2" fill="#fffff7"/><rect x="16" y="22" width="4" height="4" rx=".629" ry=".687" opacity=".1"/><rect x="16" y="21" width="4" height="4" rx=".629" ry=".687" fill="#5294e2"/><circle cx="10" cy="24" r="2" opacity=".1"/><circle cx="10" cy="23" r="2" fill="#5294e2"/><rect x="16" y="15" width="4" height="4" rx=".629" ry=".687" opacity=".2"/><rect x="16" y="14" width="4" height="4" rx=".629" ry=".687" fill="#fff"/></g></svg>