<svg width="48" height="48" version="1" xmlns="http://www.w3.org/2000/svg">
<defs>
<filter id="a" color-interpolation-filters="sRGB">
<feFlood flood-opacity=".196" result="flood"/>
<feComposite in="flood" in2="SourceGraphic" operator="in" result="composite1"/>
<feGaussianBlur in="composite1" result="blur" stdDeviation="1"/>
<feOffset dx="0" dy="1" result="offset"/>
<feComposite in="SourceGraphic" in2="offset" result="composite2"/>
</filter>
</defs>
<circle cx="24" cy="24" r="20" fill="#ea004e" filter="url(#a)"/>
<path d="m24 4a19.955 19.955 0 0 0-19.998 20c0 0.168-4e-3 0.333 0 0.5 0.264-10.846 9.087-19.5 19.998-19.5s19.734 8.654 19.998 19.5c4e-3 -0.167 0-0.332 0-0.5 0-11.08-8.919-20-19.998-20z" fill="#fff" filter="url(#a)" opacity=".2"/>
<g clip-rule="evenodd" fill-rule="evenodd" filter="url(#a)">
<g enable-background="new" opacity=".2">
<path d="m20.326 31.654s-1.07 0.622 0.762 0.832c2.218 0.253 3.352 0.217 5.797-0.245 0 0 0.644 0.403 1.542 0.752-5.482 2.348-12.407-0.136-8.102-1.34zm-0.671-3.066s-1.2 0.889 0.633 1.078c2.37 0.245 4.242 0.265 7.482-0.359 0 0 0.447 0.454 1.151 0.703-6.627 1.938-14.007 0.152-9.266-1.422zm5.647-5.2c1.35 1.555-0.355 2.954-0.355 2.954s3.43-1.77 1.855-3.988c-1.471-2.067-2.6-3.094 3.507-6.635 0 0-9.585 2.393-5.007 7.669z"/>
<path d="m32.552 33.921s0.791 0.653-0.872 1.157c-3.164 0.959-13.169 1.248-15.948 0.039-0.998-0.435 0.875-1.038 1.464-1.165 0.614-0.133 0.965-0.109 0.965-0.109-1.11-0.782-7.18 1.537-3.083 2.202 11.176 1.811 20.372-0.816 17.473-2.124zm-11.712-8.509s-5.089 1.209-1.802 1.648c1.388 0.186 4.154 0.143 6.732-0.073 2.106-0.177 4.22-0.555 4.22-0.555s-0.742 0.319-1.28 0.685c-5.168 1.36-15.15 0.727-12.276-0.663 2.43-1.176 4.406-1.042 4.406-1.042zm9.13 5.102c5.253-2.73 2.823-5.352 1.128-4.999-0.415 0.087-0.6 0.162-0.6 0.162s0.154-0.242 0.448-0.347c3.354-1.178 5.933 3.478-1.082 5.322 0 0 0.08-0.073 0.105-0.138zm-3.168-20.514s2.91 2.91-2.76 7.385c-4.545 3.59-1.036 5.637-1e-3 7.976-2.654-2.394-4.6-4.502-3.295-6.463 1.917-2.879 7.23-4.275 6.056-8.898z"/>
<path d="m21.356 37.912c5.042 0.323 12.786-0.18 12.97-2.565 0 0-0.353 0.904-4.167 1.622-4.304 0.81-9.613 0.716-12.761 0.196 0 0 0.645 0.534 3.958 0.747z"/>
</g>
<g enable-background="new" fill="#fff">
<path d="m20.326 30.654s-1.07 0.622 0.762 0.832c2.218 0.253 3.352 0.217 5.797-0.245 0 0 0.644 0.403 1.542 0.752-5.482 2.348-12.407-0.136-8.102-1.34zm-0.671-3.066s-1.2 0.889 0.633 1.078c2.37 0.245 4.242 0.265 7.482-0.359 0 0 0.447 0.454 1.151 0.703-6.627 1.938-14.007 0.152-9.266-1.422zm5.647-5.2c1.35 1.555-0.355 2.954-0.355 2.954s3.43-1.77 1.855-3.988c-1.471-2.067-2.6-3.094 3.507-6.635 0 0-9.585 2.393-5.007 7.669z"/>
<path d="m32.552 32.921s0.791 0.653-0.872 1.157c-3.164 0.959-13.169 1.248-15.948 0.039-0.998-0.435 0.875-1.038 1.464-1.165 0.614-0.133 0.965-0.109 0.965-0.109-1.11-0.782-7.18 1.537-3.083 2.202 11.176 1.811 20.372-0.816 17.473-2.124zm-11.712-8.509s-5.089 1.209-1.802 1.648c1.388 0.186 4.154 0.143 6.732-0.073 2.106-0.177 4.22-0.555 4.22-0.555s-0.742 0.319-1.28 0.685c-5.168 1.36-15.15 0.727-12.276-0.663 2.43-1.176 4.406-1.042 4.406-1.042zm9.13 5.102c5.253-2.73 2.823-5.352 1.128-4.999-0.415 0.087-0.6 0.161-0.6 0.161s0.154-0.242 0.448-0.346c3.354-1.178 5.933 3.478-1.082 5.322 0 0 0.08-0.073 0.105-0.138zm-3.168-20.514s2.91 2.91-2.76 7.385c-4.545 3.59-1.036 5.637-1e-3 7.976-2.654-2.394-4.6-4.502-3.295-6.463 1.917-2.879 7.23-4.275 6.056-8.898z"/>
<path d="m21.356 36.912c5.042 0.323 12.786-0.18 12.97-2.565 0 0-0.353 0.904-4.167 1.622-4.304 0.81-9.613 0.716-12.761 0.196 0 0 0.645 0.534 3.958 0.747z"/>
</g>
</g>
<path d="M 43.979,24.418 A 20,20 0 0 1 24,44 20,20 0 0 1 4.022,24.582 20,20 0 0 0 4,25 20,20 0 0 0 24,45 20,20 0 0 0 44,25 20,20 0 0 0 43.979,24.418 Z" filter="url(#a)" opacity=".2"/>
</svg>
