<svg width="48" height="48" version="1.1" viewBox="0 0 48 48" xmlns="http://www.w3.org/2000/svg"><defs><filter id="a" color-interpolation-filters="sRGB"><feFlood flood-color="#000" flood-opacity=".196" result="flood"/><feComposite in="flood" in2="SourceGraphic" operator="in" result="composite1"/><feGaussianBlur in="composite1" result="blur" stdDeviation="1"/><feOffset dx="0" dy="1" result="offset"/><feComposite in="SourceGraphic" in2="offset" result="composite2"/></filter></defs><g transform="translate(.693 -1.293) scale(1.4599)" filter="url(#a)"><g fill="#0090ff"><path d="M15.965 3.626A15 11.25 0 0 0 .964 14.876a15 11.25 0 0 0 4.318 7.884c.065-.437.154-.847.205-1.303a1.875 1.875 0 0 0-.363-1.333 1.875 1.875 0 0 0-.12-.143c-.023-.025-.037-.052-.06-.077a9.035 9.035 0 0 1-.864-1.099c-.076-.116-.128-.237-.197-.355-.17-.292-.342-.583-.469-.886a7.002 7.002 0 0 1-.403-1.242c-.003-.013-.008-.026-.01-.04v-.004c-.013-.057-.027-.114-.038-.172V16.1a6.755 6.755 0 0 1-.124-1.22v-.007c0-.41.052-.813.124-1.212v-.011l.037-.18v-.003c.1-.473.248-.933.447-1.384.19-.432.429-.853.707-1.26.019-.028.035-.057.055-.084.268-.385.575-.756.919-1.114.059-.062.121-.122.183-.183.358-.354.741-.699 1.172-1.021.416-.313.874-.597 1.351-.868a14.614 14.614 0 0 1 1.857-.894h.004l.01-.004a16.139 16.139 0 0 1 1.883-.6c.65-.167 1.323-.296 2.018-.388l.022-.004c.039-.005.078-.008.117-.011l.102-.011a17.93 17.93 0 0 1 2.117-.14c.94 0 1.858.074 2.74.21.783.12 1.533.297 2.255.512l.01.004c.136.04.271.081.404.124.056.022.114.043.172.063.554.188 1.084.402 1.59.64l.025.012a13.28 13.28 0 0 1 2.285 1.355c2.348 1.76 3.644 4.025 3.644 6.456s-1.296 4.695-3.644 6.456c-.293.22-.602.43-.926.63-.42.26-.874.492-1.34.714l-.02.011c-.008.005-.02.007-.028.011a15.293 15.293 0 0 1-2.154.824l-.007.004-.011.004c-.721.215-1.474.392-2.256.513-.881.136-1.795.208-2.735.208h-.004c-.1 0-.194-.016-.293-.018a18.052 18.052 0 0 1-1.824-.12c-.067-.009-.134-.01-.201-.02l-.019-.003a17.368 17.368 0 0 1-2.094-.41h-.004a1.875 1.875 0 0 0-1.831.52c-.222.232-.47.424-.71.63a15 11.25 0 0 0 6.976 1.296 15 11.25 0 0 0 15-11.25 15 11.25 0 0 0-15-11.25z" stroke-width="1.429"/><path d="M3.84 18.37C3.6 23.276 2.7 27.748.963 29.874c4.681 0 8.824-2.375 11.43-6.027-.287-.06-.583-.095-.864-.169a1.875 1.875 0 0 0-1.832.52c-1.477 1.549-3.381 2.492-5.423 3.102.573-1.753.974-3.695 1.212-5.845a1.875 1.875 0 0 0-.483-1.475 8.899 8.899 0 0 1-1.165-1.612z" stroke-width="1.429"/><path d="M17.84 14.876a1.875 1.875 0 0 1-1.875 1.875 1.875 1.875 0 0 1-1.875-1.875 1.875 1.875 0 0 1 1.875-1.875 1.875 1.875 0 0 1 1.875 1.875zM23.465 14.876a1.875 1.875 0 0 1-1.875 1.875 1.875 1.875 0 0 1-1.875-1.875 1.875 1.875 0 0 1 1.875-1.875 1.875 1.875 0 0 1 1.875 1.875zM12.215 14.876a1.875 1.875 0 0 1-1.875 1.875 1.875 1.875 0 0 1-1.875-1.875 1.875 1.875 0 0 1 1.875-1.875 1.875 1.875 0 0 1 1.875 1.875z"/></g><g fill="#0090ff" opacity=".2"><path d="M15.965 4.775A15 11.25 0 0 0 .964 16.025a15 11.25 0 0 0 4.318 7.884c.065-.437.154-.847.205-1.303a1.875 1.875 0 0 0-.363-1.333 1.875 1.875 0 0 0-.12-.143c-.023-.025-.037-.052-.06-.077a9.035 9.035 0 0 1-.864-1.099c-.076-.116-.128-.237-.197-.355-.17-.292-.342-.583-.469-.886a7.002 7.002 0 0 1-.403-1.242c-.003-.013-.008-.026-.01-.04v-.003c-.013-.058-.027-.115-.038-.173v-.007a6.755 6.755 0 0 1-.124-1.22v-.007c0-.41.052-.813.124-1.212v-.01l.037-.18v-.004c.1-.473.248-.933.447-1.384.19-.432.429-.853.707-1.26.019-.028.035-.056.055-.084.268-.385.575-.756.919-1.114.059-.061.121-.122.183-.183.358-.354.741-.698 1.172-1.021.416-.312.874-.597 1.351-.868a14.614 14.614 0 0 1 1.857-.894h.004l.01-.003a16.139 16.139 0 0 1 1.883-.601c.65-.167 1.323-.296 2.018-.388l.022-.004c.039-.005.078-.008.117-.01l.102-.012a17.93 17.93 0 0 1 2.117-.14c.94 0 1.858.074 2.74.21.783.12 1.533.297 2.255.512l.01.004c.136.04.271.081.404.125.056.022.114.042.172.062.554.188 1.084.403 1.59.64.007.005.017.008.025.012a13.28 13.28 0 0 1 2.285 1.355c2.348 1.76 3.644 4.025 3.644 6.456s-1.296 4.695-3.644 6.456c-.293.22-.602.43-.926.63-.42.26-.874.493-1.34.714l-.02.011c-.008.005-.02.007-.028.011a15.293 15.293 0 0 1-2.154.824l-.007.004-.011.004c-.721.215-1.474.392-2.256.513-.881.136-1.795.208-2.735.208h-.004c-.1 0-.194-.016-.293-.018a18.052 18.052 0 0 1-1.824-.12c-.067-.009-.134-.01-.201-.02l-.019-.003a17.368 17.368 0 0 1-2.094-.41h-.004a1.875 1.875 0 0 0-1.831.52c-.222.232-.47.424-.71.63a15 11.25 0 0 0 6.976 1.296 15 11.25 0 0 0 15-11.25 15 11.25 0 0 0-15-11.25z" stroke-width="1.429"/><path d="M3.84 19.518C3.6 24.426 2.7 28.898.963 31.025c4.681 0 8.824-2.376 11.43-6.028-.287-.06-.583-.095-.864-.169a1.875 1.875 0 0 0-1.832.52c-1.477 1.549-3.381 2.492-5.423 3.102.573-1.752.974-3.694 1.212-5.845a1.875 1.875 0 0 0-.483-1.475 8.899 8.899 0 0 1-1.165-1.612z" stroke-width="1.429"/><path d="M17.84 16.025a1.875 1.875 0 0 1-1.875 1.875 1.875 1.875 0 0 1-1.875-1.875 1.875 1.875 0 0 1 1.875-1.875 1.875 1.875 0 0 1 1.875 1.875zM23.465 16.025A1.875 1.875 0 0 1 21.59 17.9a1.875 1.875 0 0 1-1.875-1.875 1.875 1.875 0 0 1 1.875-1.875 1.875 1.875 0 0 1 1.875 1.875zM12.215 16.025A1.875 1.875 0 0 1 10.34 17.9a1.875 1.875 0 0 1-1.875-1.875 1.875 1.875 0 0 1 1.875-1.875 1.875 1.875 0 0 1 1.875 1.875z"/></g><g opacity=".2" stroke-width="1.875"><path d="M15.963 3.627A15 11.25 0 0 0 .965 14.877a15 11.25 0 0 0 .027.394A15 11.25 0 0 1 15.965 4.597l-.002.002a15 11.25 0 0 1 14.975 10.84 15 11.25 0 0 0 .028-.563 15 11.25 0 0 0-15-11.25zM29.055 15.36c-.161 2.245-1.419 4.327-3.61 5.97-.293.22-.603.431-.927.631-.42.26-.873.491-1.34.713-.007.003-.011.009-.018.012l-.029.011a15.297 15.297 0 0 1-2.154.823c-.003 0-.005.003-.008.004-.004 0-.006.002-.01.003-.72.215-1.473.393-2.256.514-.88.136-1.796.209-2.736.21h-.004c-.1 0-.193-.018-.293-.02a18.023 18.023 0 0 1-1.822-.121c-.067-.008-.136-.009-.203-.018-.006 0-.012-.003-.018-.004a17.354 17.354 0 0 1-2.094-.41h-.003a1.875 1.875 0 0 0-1.832.52c-.222.232-.471.424-.711.63a15 11.25 0 0 0 .783.272 1.875 1.875 0 0 1 1.76-.45h.004a17.35 17.35 0 0 0 2.093.41l.018.005c.067.009.136.01.203.017.602.073 1.21.11 1.822.121.1.002.193.02.293.02h.004c.94 0 1.855-.073 2.736-.21.783-.12 1.535-.298 2.256-.513l.01-.004c.003 0 .005-.003.008-.004a15.303 15.303 0 0 0 2.154-.824c.01-.004.02-.005.03-.01.006-.003.01-.008.017-.011a12.421 12.421 0 0 0 2.268-1.344c2.348-1.761 3.642-4.026 3.642-6.457 0-.164-.021-.324-.033-.486zm-26.189.002a5.44 5.44 0 0 0-.025.48v.008c0 .413.049.819.123 1.22v.006c.01.058.024.115.037.172v.004l.011.041c.094.42.226.832.403 1.242.127.304.298.593.469.885.07.118.12.24.197.356.248.38.545.744.865 1.1.022.024.036.05.059.075a1.875 1.875 0 0 1 .12.143 1.875 1.875 0 0 1 .313.666c.016-.103.037-.198.05-.305a1.875 1.875 0 0 0-.362-1.334 1.875 1.875 0 0 0-.121-.142c-.023-.025-.037-.052-.059-.077a9.053 9.053 0 0 1-.865-1.1c-.077-.115-.128-.235-.197-.353-.17-.292-.342-.583-.47-.886a7.007 7.007 0 0 1-.402-1.243l-.011-.039v-.004c-.013-.057-.026-.114-.037-.171v-.008a7.869 7.869 0 0 1-.098-.737z"/><path d="M3.84 18.369c-.238 4.908-1.14 9.38-2.875 11.506.22 0 .437-.011.654-.022 1.31-2.357 2.015-6.267 2.221-10.512.318.551.687 1.094 1.164 1.612.223.242.364.538.436.851.014-.117.033-.229.047-.348a1.876 1.876 0 0 0-.483-1.476 8.898 8.898 0 0 1-1.164-1.611zm7.191 5.25c-.497.006-.979.21-1.332.58-1.399 1.466-3.186 2.378-5.105 2.99-.101.367-.203.732-.318 1.084 2.041-.61 3.946-1.553 5.423-3.102a1.873 1.873 0 0 1 1.83-.52c.063.017.128.025.192.038.229-.277.464-.548.674-.842-.287-.06-.585-.094-.866-.168a1.873 1.873 0 0 0-.498-.06z"/></g></g></svg>