<svg width="48" height="48" viewBox="0 0 48 48" version="1.1" xmlns="http://www.w3.org/2000/svg" xmlns:xlink="http://www.w3.org/1999/xlink"><title>application-x-deepinclone-dim</title><defs><path d="M31.001 39H1c-.623 0-1-.476-1-1V1c0-.58.377-1 1-1h21.01L32 10v28c-.032 1-.999 1-.999 1z" id="b"/><filter x="-10.9%" y="-6.4%" width="121.9%" height="117.9%" filterUnits="objectBoundingBox" id="a"><feOffset dx="0" dy="1" in="SourceAlpha" result="shadowOffsetOuter1"/><feGaussianBlur stdDeviation="1" in="shadowOffsetOuter1" result="shadowBlurOuter1"/><feComposite in="shadowBlurOuter1" in2="SourceAlpha" operator="out" result="shadowBlurOuter1"/><feColorMatrix values="0 0 0 0 0 0 0 0 0 0 0 0 0 0 0 0 0 0 0.2 0" type="matrix" in="shadowBlurOuter1"/></filter><linearGradient x1="50%" y1="2.868%" x2="50%" y2="100%" id="c"><stop stop-color="#0090FF" offset="0%"/><stop stop-color="#0076FF" offset="100%"/></linearGradient><path d="M16.988 8.913a8 8 0 1 1-16 0 8 8 0 0 1 16 0" id="d"/><path d="M2.097 12.053c1.586.463 5.928 1.463 8.67-.473 1.778-1.256 1.55-3.267 1.55-3.267-.03-1.53-.997-3.049-.997-3.049 3.759 3.276 1.537 6.916 1.537 6.916-1.144 2.25-3.623 3.604-5.601 4.078a7.557 7.557 0 0 1-5.16-4.205zm1.018-7.92c.466 2.44 1.51 4.498 2.205 5.246.898.967 2.22 1.993 3.917 1.57 1.698-.425 2.043-2.28 2.043-2.28.375-1.58-.158-3.454-.187-3.494-.029-.04-.284-.083-.284-.083.267 2.486-.388 3.586-.388 3.586-.951 1.95-2.348 1.347-2.348 1.347C6.52 9.233 6.593 7 6.593 7c-.048-1.552.567-4.117 1.749-5.61a7.53 7.53 0 0 0-5.227 2.741zm8.79-2.167c-.907.737-2.45 2.311-2.45 2.311C7.165 6.4 7.609 8.185 7.609 8.185c.365 1.875 1.5.612 1.5.612 1.194-1.234 1.105-3.69 1.105-3.69-.483.078-.789.345-.789.345-.06 1.638-1.026 2.654-1.026 2.654-.375.415-.642.02-.642.02-.197-.297.198-.504.198-.504.552-.483.718-1.308.71-1.618-.007-.31.158-.394.158-.394a8.915 8.915 0 0 1 1.56-.958c1.045-.533 2.91-.622 2.91-.622.506.017.99-.008 1.376-.042a7.558 7.558 0 0 0-2.764-2.022z" id="f"/></defs><g stroke="none" stroke-width="1" fill="none" fill-rule="evenodd"><g fill-rule="nonzero" fill="#000" transform="translate(9 5)"><use fill-opacity="1" filter="url(#a)" xlink:href="#b"/><use fill-opacity=".1" fill-rule="evenodd" xlink:href="#b"/></g><path d="M31.001 39H1c-.623 0-1-.476-1-1V1c0-.58.377-1 1-1h21.01L32 10v28c-.032 1-.999 1-.999 1z" fill="url(#c)" fill-rule="nonzero" transform="translate(9 5)"/><g transform="translate(16 14)"><mask id="e" fill="#fff"><use xlink:href="#d"/></mask><path d="M16.988 8.913a8 8 0 1 1-16 0 8 8 0 0 1 16 0" mask="url(#e)"/><path d="M16.695 8.909a7.712 7.712 0 1 1-15.424 0 7.712 7.712 0 0 1 15.424 0" stroke="#FFF"/><use fill="#FFF" xlink:href="#f"/></g><text font-family="SourceHanSansSC-Regular, Source Han Sans SC" font-size="8" font-weight="normal" fill="#FFF" transform="translate(9 5)"><tspan x="8" y="36">DIM</tspan></text><path d="M31.929 15.028c-.552 0-.929-.476-.929-1.028V5l10 10-9.071.028z" fill="#32ADFF" fill-rule="nonzero"/></g></svg>