<svg version="1.1" viewBox="0 0 48 48" xmlns="http://www.w3.org/2000/svg"><defs><filter id="a" color-interpolation-filters="sRGB"><feFlood flood-color="#000" flood-opacity=".196" result="flood"/><feComposite in="flood" in2="SourceGraphic" operator="in" result="composite1"/><feGaussianBlur in="composite1" result="blur" stdDeviation="1"/><feOffset dx="0" dy="1" result="offset"/><feComposite in="SourceGraphic" in2="offset" result="composite2"/></filter></defs><g filter="url(#a)"><path d="M27 10L13 24" fill="none" stroke="#7d7d7d" stroke-width="8"/><rect transform="scale(-1 1)" x="-19" y="24" width="12" height="17" ry="0" fill="#7d7d7d"/><rect transform="scale(-1 1)" x="-21" y="17" width="16" height="16" ry="8" opacity=".2"/><rect transform="scale(-1 1)" x="-21" y="38" width="16" height="4" ry="2" fill="#909090"/><path d="M19 38c1.108 0 2 .892 2 2 0 .174-.029.34-.07.5A1.99 1.99 0 0 0 19 39H7a1.99 1.99 0 0 0-1.93 1.5A1.996 1.996 0 0 1 5 40c0-1.108.892-2 2-2h12z" fill="#fff" opacity=".1"/><path d="M21 40c2 0 2 2 2 2v2H3v-2c0-2 2-2 2-2z" fill="#4f4f4f"/><rect transform="scale(-1 1)" x="-21" y="16" width="16" height="16" ry="8" fill="#909090"/><rect transform="scale(-1 1)" x="-19" y="18" width="12" height="12" ry="6" fill="#4f4f4f"/><path d="M27 10l10 10" fill="none" stroke="#7d7d7d" stroke-width="6"/><rect transform="scale(-1 1)" x="-33" y="5" width="12" height="12" ry="6" opacity=".2"/><rect transform="scale(-1 1)" x="-33" y="4" width="12" height="12" ry="6" fill="#909090"/><path d="M39 28l-4-2v-4l4-4h4l2 4" fill="none" stroke="#4f4f4f" stroke-linecap="round" stroke-linejoin="round" stroke-width="2"/><rect transform="scale(-1 1)" x="-31" y="6" width="8" height="8" ry="4" fill="#4f4f4f"/><g fill="#fff"><rect transform="scale(-1 1)" x="-17" y="20" width="8" height="8" ry="4" opacity=".1"/><rect transform="scale(-1 1)" x="-29" y="8" width="4" height="4" ry="2" opacity=".1"/><path d="M13 16c4.432 0 8 3.568 8 8 0 .169-.015.334-.025.5A7.975 7.975 0 0 0 13 17a7.974 7.974 0 0 0-7.975 7.5C5.015 24.334 5 24.169 5 24c0-4.432 3.568-8 8-8z" opacity=".1"/><path d="M27 4c3.324 0 6 2.676 6 6 0 .169-.012.335-.025.5A5.983 5.983 0 0 0 27 5a5.982 5.982 0 0 0-5.975 5.5A6.116 6.116 0 0 1 21 10c0-3.324 2.676-6 6-6z" opacity=".2"/><path d="M21 40c2 0 2 2 2 2v1s0-2-2-2H5s-2 0-2 2v-1c0-2 2-2 2-2h16z" opacity=".1"/></g></g></svg>