<svg width="48" height="48" version="1.1" viewBox="0 0 48 48" xmlns="http://www.w3.org/2000/svg"><defs><filter id="a" color-interpolation-filters="sRGB"><feFlood flood-color="#000" flood-opacity=".196" result="flood"/><feComposite in="flood" in2="SourceGraphic" operator="in" result="composite1"/><feGaussianBlur in="composite1" result="blur" stdDeviation="1"/><feOffset dx="0" dy="1" result="offset"/><feComposite in="SourceGraphic" in2="offset" result="composite2"/></filter></defs><g filter="url(#a)"><path d="M5 6v30c0 2 2 2 2 2h37zm7 13.857L24.75 31H12z" opacity=".2"/><path d="M5 5v30c0 2 2 2 2 2h37zm7 13.857L24.75 30H12z" fill="#009688"/><path d="M5 5v1l37.781 31H44zm7 25v1h12.75l-1.145-1z" fill="#fff" opacity=".2"/><path d="M24.512 18.043l12 22L36.756 44 33 41.957l-12-22z" fill-rule="evenodd" opacity=".2"/><path d="M24.512 17.043l12 22L36.756 43 33 40.957l-12-22z" fill="#a2a2a2" fill-rule="evenodd"/><path d="M21.244 18.043l-12 22L9 44l3.756-2.043 1.648-3.022A19 19 0 0 0 23 41a19 19 0 0 0 19-19h-4a15 15 0 0 1-15 15 15 15 0 0 1-6.672-1.592l8.428-15.45z" opacity=".2"/><path d="M21.244 17.043l-12 22L9 43l3.756-2.043 1.648-3.022A19 19 0 0 0 23 40a19 19 0 0 0 19-19h-4a15 15 0 0 1-15 15 15 15 0 0 1-6.672-1.592l8.428-15.45z" fill="#e4e4e4"/><path d="M21 10v4h-2c-2 0-2 2-2 2v8l4 4c1.329 1.074 2.767 1.25 4 0l4-4v-8c0-2-2-2-2-2h-2v-4z" opacity=".2"/><path d="M21.244 17.043l-12 22L9 43l.064-.035.18-2.922 12-22 3.092 1.685.42-.771-3.512-1.914zM38 21a15 15 0 0 1-15 15 15 15 0 0 1-6.236-1.39l-.436.798A15 15 0 0 0 23 37a15 15 0 0 0 15-15h3.965A19 19 0 0 0 42 21h-4z" fill="#fff" opacity=".2"/><path d="M21 9v4h-2c-2 0-2 2-2 2v8l4 4c1.329 1.074 2.767 1.25 4 0l4-4v-8c0-2-2-2-2-2h-2V9z" fill="#4f4f4f"/><circle cx="23" cy="20" r="2" opacity=".2"/><circle cx="23" cy="19" r="2" fill="#fff"/><path d="M21 9v1h4V9zm-2 4c-2 0-2 2-2 2v1s0-2 2-2h2v-1zm6 0v1h2s2 0 2 2v-1c0-2-2-2-2-2z" fill="#fff" opacity=".1"/></g></svg>