<svg xmlns="http://www.w3.org/2000/svg" width="48" height="48" viewBox="0 0 48 48" version="1.1"><g fill-opacity="1" stroke="none" stroke-linecap="round" stroke-linejoin="round" stroke-opacity="1" transform="translate(0 -1004.362)"><rect width="39" height="38" x="4.46" y="1010.852" ry="1.034" opacity=".05" fill="#000" stroke-width=".236" stroke-miterlimit="4"/><rect ry="1.034" y="1010.341" x="5" height="38" width="38" opacity=".1" fill="#000" stroke-width=".236" stroke-miterlimit="4"/><rect width="38" height="38" x="5" y="1009.867" ry="1.034" opacity=".15" fill="#000" stroke-width=".236" stroke-miterlimit="4"/><rect ry="1.034" y="1009.347" x="5" height="38" width="38" opacity="1" fill="#05bf01" stroke-width=".236" stroke-miterlimit="4"/><path d="M24.008 1015.347c-5.983 0-10.01.635-10.01.635-2.98.405-4.998 2.229-4.998 4.998v.055h2.496c.503-1.6 1.993-2.649 4.033-2.92 0 0 3.41-.528 8.477-.528s8.467.528 8.467.528c2.026.3 3.522 1.33 4.029 2.92H39v-.055c0-2.769-2.034-4.549-4.996-4.998 0 0-4.013-.635-9.996-.635zM23 1021.948v13.032h2.063v-13.032H23zm4 .031l3 7.971v.01l-.008.022H30v5h2v-4.998h.012l-.01-.027 2.998-7.975h-2l-2 5.317-2-5.317h-2zm-10.67.01a2.31 2.31 0 0 0-2.316 2.315v8.353a2.31 2.31 0 0 0 2.316 2.315h2.453c.077 0 .15-.016.225-.024l.006 1.068s.005.912.982.957v.01H22v-.996h-1.482s-.52.033-.52-.508c0-.461.005-.536.01-.859a2.301 2.301 0 0 0 1.092-1.959v-8.354a2.31 2.31 0 0 0-2.317-2.314H16.33zm-7.33.035v2.97h2.297v-2.739c0-.08.017-.152.021-.23H9zm27.684 0c.004.078.021.15.021.231v12.435c0 .125-.023.238-.033.358H39v-13.024h-2.316zm-20.047 1.94h1.76c.334 0 .605.269.605.603v7.797c0 .335-.27.606-.606.606h-1.76a.603.603 0 0 1-.603-.606v-7.797c0-.334.269-.603.604-.603zM9 1025.984v9.064h2.33c-.01-.12-.033-.232-.033-.357v-8.708H9zm.004 10.052c.025 2.738 2.024 4.43 4.994 4.946 0 0 4.012.448 9.992.523 5.98.075 10.014-.523 10.014-.523 2.949-.496 4.966-2.208 4.992-4.946h-2.533c-.545 1.508-2.015 2.472-3.99 2.797 0 0-3.416.496-8.48.434-5.066-.062-8.464-.434-8.464-.434-1.988-.338-3.45-1.294-3.992-2.797H9.004z" opacity="1" fill="#fff" stroke-width=".5"/></g></svg>