<svg width="48" height="48" viewBox="0 0 48 48" version="1.1" xmlns="http://www.w3.org/2000/svg"><title>Artboard 3</title><defs><filter x="-50%" y="-50%" width="200%" height="200%" filterUnits="objectBoundingBox" id="a"><feOffset dx="0" dy="1" in="SourceAlpha" result="shadowOffsetOuter1"/><feGaussianBlur stdDeviation=".5" in="shadowOffsetOuter1" result="shadowBlurOuter1"/><feColorMatrix values="0 0 0 0 0 0 0 0 0 0 0 0 0 0 0 0 0 0 0.21 0" in="shadowBlurOuter1" type="matrix" result="shadowMatrixOuter1"/><feMerge><feMergeNode in="shadowMatrixOuter1"/><feMergeNode in="SourceGraphic"/></feMerge></filter></defs><g stroke="none" stroke-width="1" fill="none" fill-rule="evenodd"><path d="M42 43H6a1 1 0 0 1-1-1V6a1 1 0 0 1 1-1h36a1 1 0 0 1 1 1v36a1 1 0 0 1-1 1" fill="#1278EF" filter="url(#a)"/><path d="M36.306 23.183c-.609-.16-1.099-.604-1.243-1.216-1.069-4.565-5.59-7.994-11.01-7.994-5.44 0-9.975 3.451-11.025 8.038-.13.573-.593.991-1.164 1.134a4.983 4.983 0 0 0-3.78 4.821c-.006 2.646 2.198 4.926 4.843 5.008.285.009.565-.006.838-.044a1.502 1.502 0 0 0 1.291-1.489v-7.626c.135-4.332 4.113-7.61 8.996-7.61 4.922 0 8.928 3.33 9.002 7.713v7.607a1.44 1.44 0 0 0 1.23 1.42c.292.044.592.062.9.053 2.644-.083 4.848-2.364 4.841-5.01a4.982 4.982 0 0 0-3.719-4.805" fill="#F8F9F9"/><path d="M22.052 29.977h-2.035c-1.094 0-1.984-.907-1.984-2 0-1.094.89-2 1.984-2h2.035v4zm.991-10h-.991v4h-2.035c-2.2 0-3.984 1.8-3.984 4s1.784 4 3.984 4h4.035V20.986a1.01 1.01 0 0 0-1.009-1.01zM31.04 23.977h-.988v6h-3v-4.99a1.01 1.01 0 0 0-1.01-1.01h-.99v5.963c0 1.125.912 2.037 2.037 2.037h3.997a.966.966 0 0 0 .966-.966v-6.023c0-.558-.453-1.011-1.011-1.011" fill="#F8F9F9"/></g></svg>