<svg width="48" height="48" viewBox="0 0 48 48" version="1.1" xmlns="http://www.w3.org/2000/svg"><title>乐视云盘</title><defs><filter x="-50%" y="-50%" width="200%" height="200%" filterUnits="objectBoundingBox" id="a"><feOffset dx="0" dy="1" in="SourceAlpha" result="shadowOffsetOuter1"/><feGaussianBlur stdDeviation=".5" in="shadowOffsetOuter1" result="shadowBlurOuter1"/><feColorMatrix values="0 0 0 0 0 0 0 0 0 0 0 0 0 0 0 0 0 0 0.21 0" in="shadowBlurOuter1" type="matrix" result="shadowMatrixOuter1"/><feMerge><feMergeNode in="shadowMatrixOuter1"/><feMergeNode in="SourceGraphic"/></feMerge></filter></defs><g stroke="none" stroke-width="1" fill="none" fill-rule="evenodd"><rect fill="#089EEF" filter="url(#a)" x="3" y="3" width="42" height="42" rx="44"/><path d="M34.265 27.018c-.766 2.254-2.876 3.874-5.36 3.874-3.13 0-5.667-2.574-5.667-5.75s2.538-5.75 5.668-5.75c2.631 0 4.844 1.82 5.482 4.286l-7.933 3.018s1.072 3.108 4.595 2.176c1.6-.424 2.6-1.168 3.215-1.854zM22.808 12.865c2.904.012 5.486 1.822 6.603 4.55l.416 1.018.92-.584a3.976 3.976 0 0 1 2.142-.625c2.279 0 4.136 1.932 4.136 4.328 0 .083-.002.166-.007.249l-.024.453.336.3a5.527 5.527 0 0 1 1.832 4.142c0 3.01-2.336 5.304-5.205 5.304h-19.45c-3.126 0-5.669-2.504-5.669-5.77 0-1.973.935-3.779 2.466-4.873a.941.941 0 0 0 .221-1.3.91.91 0 0 0-1.28-.225C8.228 21.274 7 23.646 7 26.23 7 30.516 10.356 34 14.506 34h19.451C37.852 34 41 30.725 41 26.696c0-2.158-.909-4.166-2.458-5.545 0 0 .321.518.321.4 0-3.414-2.67-6.192-5.974-6.192a5.795 5.795 0 0 0-3.117.909l1.336.433c-1.4-3.425-4.66-5.701-8.33-5.701-4.623 0-8.277 3.302-8.778 8-.02.185-.025.366 0 .526V31h9v-2h-5V18s0-3.514 3.813-4.757c.434-.141.76-.267.995-.378zm3.34 11.81l5.975-2.02s-1.226-2.02-3.83-1.243c-2.604.777-2.145 3.264-2.145 3.264z" fill="#FFF"/></g></svg>