<svg width="48" height="48" viewBox="0 0 48 48" version="1.1" xmlns="http://www.w3.org/2000/svg"><title>看见音乐</title><defs><filter x="-50%" y="-50%" width="200%" height="200%" filterUnits="objectBoundingBox" id="a"><feOffset dx="0" dy="1" in="SourceAlpha" result="shadowOffsetOuter1"/><feGaussianBlur stdDeviation=".5" in="shadowOffsetOuter1" result="shadowBlurOuter1"/><feColorMatrix values="0 0 0 0 0 0 0 0 0 0 0 0 0 0 0 0 0 0 0.21 0" in="shadowBlurOuter1" type="matrix" result="shadowMatrixOuter1"/><feMerge><feMergeNode in="shadowMatrixOuter1"/><feMergeNode in="SourceGraphic"/></feMerge></filter></defs><g stroke="none" stroke-width="1" fill="none" fill-rule="evenodd"><path d="M32 30.5L25 34V24h-1v10.5l-8 4V19.176l9.585-4.883.14.07.458.228L45 24l-12 6v-6h-1v6.5zM23.001 13l-.55-.274c-.87-.436-2.58.21-3.451-.226-.735-.367-.632-1.816-1.367-2.184L16 9.5v6.794l7.001-3.293zM14 39.5L7 43V5l7 3.5v31z" fill="#12BFF5" filter="url(#a)"/><path d="M16 9.5v7l7.238-3.38L16 9.5z" fill="#FE6787"/></g></svg>