<svg xmlns="http://www.w3.org/2000/svg" width="48" height="48" viewBox="0 0 48 48" version="1.1"><g fill-opacity="1" stroke="none" stroke-linecap="round" stroke-linejoin="round" stroke-opacity="1" transform="translate(0 -1004.362)"><g transform="translate(-38.095 -6.317)" fill="#000" stroke-width=".5"><rect width="39" height="38" x="42.598" y="1017.223" ry="1" opacity=".05"/><rect ry="1" y="1016.718" x="43.077" height="38" width="38" opacity=".1"/><rect width="38" height="38" x="43.077" y="1016.22" ry="1" opacity=".15"/></g><rect ry="1" y="1009.379" x="5.008" height="38" width="38" opacity="1" fill="#436a88" stroke-width="1.5"/><path d="M23.934 1012.808c-3.662 0-6.632 3.492-6.632 7.8a9.05 9.05 0 0 0 .37 2.547c2.831.213 5.433 1.478 6.33 3.55.833-2.068 3.414-3.273 6.191-3.54a9.047 9.047 0 0 0 .374-2.558c0-4.307-2.97-7.8-6.633-7.799zm-5.43 13.389a5.904 5.904 0 1 0 0 11.806c.14 0 .28-.01.42-.02a6.889 6.889 0 0 0-.01.198c0 3.261 2.247 5.905 5.02 5.905 2.773 0 5.021-2.644 5.021-5.905a6.909 6.909 0 0 0-.006-.208c.182.02.365.03.549.03a5.904 5.904 0 1 0 0-11.806 5.901 5.901 0 0 0-5.495 3.757 5.904 5.904 0 0 0-5.499-3.757z" opacity="1" fill="#fff" stroke-width=".5"/></g></svg>