<svg xmlns="http://www.w3.org/2000/svg" width="48" height="48" viewBox="0 0 48 48" version="1.1"><g fill-opacity="1" stroke="none" stroke-width=".5" stroke-linecap="round" stroke-linejoin="round" stroke-opacity="1"><path d="M19.995 4.488v5.034l-10.316.03.031 4.934-5.142-.022-.04 9.015H9.71v5.016l10.314.023-.029 17.006h19.532V4.489z" opacity=".05" fill="#000"/><path d="M20.022 3.974v5.033L10 9.037l.03 4.935-4.996-.022-.039 9.014h5.035v5.016l10.02.023-.028 17.006h18.976V3.974z" opacity=".1" fill="#000"/><path d="M20.022 3.48v5.034L10 8.544l.03 4.934-4.996-.022-.039 9.015h5.035v5.016l10.02.023-.028 17.005h18.976V3.48z" opacity=".15" fill="#000"/><path d="M20.022 2.963v5.034L10 8.027l.03 4.934-4.996-.022-.039 9.015h5.035v5.016l10.02.023-.028 17.005h18.976V2.963z" opacity="1" fill="#000"/><path d="M20 7.992l.034 5.058-10-.01L10 22.007h15v2.99h9V7.99z" opacity="1" fill="red"/><path opacity="1" fill="#fff" d="M25.033 25.03H34v13.976h-8.967z"/></g></svg>