<svg xmlns="http://www.w3.org/2000/svg" width="48" height="48" viewBox="0 0 48 48" version="1.1"><g fill-rule="evenodd" stroke="none" stroke-linecap="butt" stroke-linejoin="miter" stroke-opacity="1"><path d="M23.985 4.497c3.866 6.992 4.975 7.829 9.785 14.678 10.022 13.556 1.468 26.444-9.755 26.397h-.026c-11.225.049-19.778-12.84-9.755-26.397 4.776-6.872 4.79-6.908 9.751-14.678z" opacity=".05" fill="#000" stroke-width="4"/><path d="M23.985 3.982c3.866 6.992 4.975 7.829 9.785 14.679 10.022 13.555 1.468 26.443-9.755 26.396h-.026c-11.225.05-19.778-12.84-9.755-26.396 4.776-6.873 4.79-6.909 9.751-14.679z" opacity=".1" fill="#000" stroke-width="4"/><path d="M23.985 3.462c3.866 6.991 4.975 7.828 9.785 14.678 10.022 13.556 1.468 26.444-9.755 26.397h-.026c-11.225.049-19.778-12.84-9.755-26.397 4.776-6.872 4.79-6.908 9.751-14.678z" opacity=".15" fill="#000" stroke-width="4"/><path d="M24.009 3c3.806 6.992 4.898 7.83 9.632 14.679 9.867 13.555 1.446 26.444-9.603 26.397h-.026c-11.05.047-19.47-12.84-9.604-26.397 4.703-6.873 4.717-6.908 9.6-14.679z" opacity="1" fill="#579eba" fill-opacity="1" stroke-width="4"/><path d="M24.009 3l.076.125-.022-.01c-5.627 15.724-9.397 16.736-10.34 25.584-.367 8.35 7.717 17.435 21.438 9.79-3.06 4.24-8.005 5.596-11.123 5.583h-.026c-11.05.047-19.47-12.84-9.604-26.397 4.703-6.873 4.717-6.908 9.6-14.679z" opacity="1" fill="#468ca9" fill-opacity="1" stroke-width="4"/><path d="M28.2 13.25s13.186 13.163 5.537 22.754c-1.734 2.114-5.609 1.861-3.563-.284 2.102-2.55 6.002-9.743-1.974-22.47z" fill="#c2ecf0" fill-opacity="1" stroke-width="1"/></g></svg>