<svg xmlns="http://www.w3.org/2000/svg" width="48" height="48" viewBox="0 0 48 48" version="1.1"><g fill-opacity="1" fill-rule="evenodd" stroke="none" stroke-width="1" stroke-linecap="butt" stroke-linejoin="miter" stroke-opacity="1"><g transform="matrix(1.02492 0 0 1 -.598 -1004.362)" fill="#000"><circle r="21" cy="1029.88" cx="23.999" opacity=".05"/><circle cx="23.999" cy="1029.367" r="21" opacity=".1"/><ellipse ry="21" rx="20.759" cy="1028.906" cx="23.999" opacity=".15"/></g><g transform="translate(0 -1004.362)"><circle cx="23.999" cy="1028.354" r="21" fill="#eaf6fc"/><circle r="18" cy="1028.354" cx="23.999" fill="#018acd"/><path d="M28.883 1018.34c-2.44 2.052-6.886 5.746-7.549 6.298l.668-6.276h-4.988l-2.024 19h4.989l.693-6.504 6.574 6.475 5.783.03-8.392-8.391c-.629-.597-.633-1.006.049-1.616l10.328-8.994s-5.1-.02-6.131-.02v-.001z" fill="#eef7fb"/></g></g></svg>