<svg xmlns="http://www.w3.org/2000/svg" width="48" height="48" viewBox="0 0 48 48" version="1.1"><g fill-opacity="1" stroke="none" stroke-opacity="1" transform="translate(0 -1004.362)"><g transform="translate(-30 -13.007)" fill="#000" stroke-width="1.5" stroke-linecap="round" stroke-linejoin="round"><circle cx="54.031" cy="1042.345" r="21.5" opacity=".05"/><circle r="21" cy="1042.382" cx="54.017" opacity=".1"/><circle cx="54.017" cy="1041.871" r="21" opacity=".15"/></g><circle r="21" cy="1028.362" cx="24" opacity="1" fill="#f93" stroke-width="1.5" stroke-linecap="round" stroke-linejoin="round"/><path d="M13.425 1039.487l1.191-10.63s-5.407-1.466-3.895-7.01 8.11-2.474 8.11-2.474 2.062-3.94 5.315-3.207c3.253.733 4.353 3.436 4.49 5.086.138 1.65 1.283-1.558 1.283-1.558s8.156-2.75 8.43 3.665c.276 6.415-6.368 5.91-6.368 5.91l-1.329 10.402z" fill="#fff" fill-rule="evenodd" stroke-width="1" stroke-linecap="butt" stroke-linejoin="miter"/><path d="M23.518 1015.136c-2.172 0-4.202 1.275-5.213 3.117-.81-.36-1.653-.707-2.059-.754a6.044 6.044 0 0 0-.697-.041c-1.68 0-3.691.687-5.07 2.85l-.028.042-.023.047c-.835 1.667-1.06 3.159-.834 4.426.225 1.267.887 2.259 1.623 2.977a7.398 7.398 0 0 0 2.492 1.613l-1.102 9.434c-.091.76.093 1.538 1.413 1.538l16.385-.007c.992-.023 1.142-.47 1.2-.997l1.014-8.94c3.29.08 6.236-2.34 6.62-5.608.399-3.407-2.14-6.403-5.594-6.71a6.568 6.568 0 0 0-4.473 1.259c-.721-2.448-2.984-4.246-5.654-4.246zm0 1.908c2.213 0 3.99 1.779 3.99 4.004-.003.22-.084.424-.156.537l1.71.88c.787-1.494 2.48-2.49 4.346-2.324 2.41.214 4.089 2.241 3.822 4.514-.25 2.141-2.146 3.746-4.38 3.748l.18-1.582s-.047-.81-.926-.836c-.88-.026-1.086.836-1.086.836l-.737 6.58-12.802-.033c-1.35-.026-1.362 2.01-.012 2l12.586.033-.356 2.961-15.074.024 1.268-10.354-.825-.232s-1.425-.427-2.453-1.43c-.514-.502-.91-1.109-1.05-1.896-.138-.775-.025-1.78.632-3.12 1.181-1.819 2.537-2.017 3.82-1.869 1.11.128 2.654 1.177 3.25 1.826 0 0 .119-.928.733-2.168.614-1.24 2.17-2.1 3.52-2.1z" style="line-height:normal;text-indent:0;text-align:start;text-decoration-line:none;text-decoration-style:solid;text-decoration-color:#000;text-transform:none;block-progression:tb;isolation:auto;mix-blend-mode:normal" color="#000" font-style="normal" font-variant="normal" font-weight="400" font-stretch="normal" font-size="medium" font-family="sans-serif" text-decoration="none" letter-spacing="normal" word-spacing="normal" direction="ltr" writing-mode="lr-tb" baseline-shift="baseline" text-anchor="start" white-space="normal" clip-rule="nonzero" display="inline" overflow="visible" visibility="visible" opacity="1" color-interpolation="sRGB" color-interpolation-filters="linearRGB" solid-color="#000" solid-opacity="1" fill="#351000" fill-rule="evenodd" stroke-width="2" stroke-linecap="round" stroke-linejoin="miter" stroke-miterlimit="4" stroke-dashoffset="0" color-rendering="auto" image-rendering="auto" shape-rendering="auto" text-rendering="auto"/></g></svg>