<svg width="48" height="48" viewBox="0 0 48 48" version="1.1" xmlns="http://www.w3.org/2000/svg"><title>Artboard 4</title><defs><filter x="-50%" y="-50%" width="200%" height="200%" filterUnits="objectBoundingBox" id="a"><feOffset dx="0" dy="1" in="SourceAlpha" result="shadowOffsetOuter1"/><feGaussianBlur stdDeviation=".5" in="shadowOffsetOuter1" result="shadowBlurOuter1"/><feColorMatrix values="0 0 0 0 0 0 0 0 0 0 0 0 0 0 0 0 0 0 0.21 0" in="shadowBlurOuter1" type="matrix" result="shadowMatrixOuter1"/><feMerge><feMergeNode in="shadowMatrixOuter1"/><feMergeNode in="SourceGraphic"/></feMerge></filter></defs><g stroke="none" stroke-width="1" fill="none" fill-rule="evenodd"><path d="M40 40H4a1 1 0 0 1-1-1V3a1 1 0 0 1 1-1h36a1 1 0 0 1 1 1v36a1 1 0 0 1-1 1" fill="#EE9A00" filter="url(#a)" transform="translate(2 3)"/><path d="M33.6 29.459c-.915.611-1.902 1.977-2.198 3.026l-1.794 6.363c-.298 1.06-1.25 1.36-2.106.685l-5.192-4.094c-.864-.682-2.468-1.199-3.557-1.156l-6.607.26c-1.1.044-1.679-.769-1.301-1.791l2.289-6.203c.38-1.033.377-2.718 0-3.74l-2.29-6.203c-.38-1.033.213-1.835 1.302-1.792l6.607.26c1.1.044 2.701-.48 3.557-1.155l5.192-4.094c.865-.682 1.81-.365 2.106.684l1.794 6.364c.299 1.06 1.292 2.42 2.199 3.026l5.498 3.672c.915.612.906 1.61 0 2.215L33.6 29.46z" fill="#E9E9E9"/><path fill="#EE9A00" d="M18 21h3v8h-3zM31.009 29l-2.14-7-2.869.877L27.872 29h3.137zM22 18h3v11h-3z"/></g></svg>