<svg xmlns="http://www.w3.org/2000/svg" width="48" height="48" viewBox="0 0 48 48" version="1.1"><g stroke="none" stroke-opacity="1"><path d="M1.045 7.04l-.004.708c5.73 11 11.075 21.842 16.803 32.838 2.742-1.609 5.7-3.345 8.43-4.956 1.637 1.604 3.72 3.621 5.333 5.248 1.621-3.159 3.793-7.35 5.39-10.58 3.387-1.802 7.385-3.771 10.038-5.115l-.004-.426C31.147 18.585 14.941 12.42 1.047 7.035h-.002z" opacity=".05" fill="#000" fill-opacity="1" fill-rule="evenodd" stroke-width="1" stroke-linecap="butt" stroke-linejoin="miter"/><path d="M1.045 6.525l-.004.71c5.73 11 11.207 21.826 16.935 32.822 2.742-1.608 5.642-3.3 8.372-4.911a536.923 536.923 0 0 1 5.167 5.161c1.564-3.205 3.576-7.063 5.172-10.293 3.41-1.812 7.636-3.868 10.348-5.243l-.004-.398c-.003 0-.002 0-.006-.01C32.135 18.586 15.953 12.296 1.047 6.52h-.002z" opacity=".1" fill="#000" fill-opacity="1" fill-rule="evenodd" stroke-width="1" stroke-linecap="butt" stroke-linejoin="miter"/><path d="M1.045 6.03l-.004.708c5.73 11 11.28 21.769 17.008 32.764 2.742-1.608 5.671-3.227 8.401-4.838 1.637 1.604 3.349 3.451 4.962 5.078 1.564-3.205 3.312-6.81 4.908-10.04 3.397-1.813 7.414-3.712 10.701-5.364 0-.078-.002-.119.01-.02v-.441c-.003-.001-.002-.005-.006-.006C32.135 18.095 15.953 11.805 1.047 6.03h-.002z" opacity=".15" fill="#000" fill-opacity="1" fill-rule="evenodd" stroke-width="1" stroke-linecap="butt" stroke-linejoin="miter"/><g transform="scale(.58256) rotate(14.046 4017.518 824.354)"><path d="M-75.716 1009.278l84.04 10.567-15.999 13.727-3.851 18.17-10.067-6.124-11.758 11.457z" opacity="1" fill="#73c021" fill-opacity="1" fill-rule="evenodd" stroke-width="1" stroke-linecap="butt" stroke-linejoin="miter"/><path d="M-73.544 1010.266l65.869 23.324-3.856 18.145-5.526-11.053z" fill="#4e890f" fill-opacity="1" fill-rule="evenodd" stroke-width="1" stroke-linecap="butt" stroke-linejoin="miter"/><path d="M-21.626 1045.6l4.58-4.885 5.516 11.028z" fill="#8e9ca5" fill-opacity="1" fill-rule="evenodd" stroke-width="1" stroke-linecap="butt" stroke-linejoin="miter"/><g fill="#fff"><path d="M-44.464 1044.568l19.323-5.122s-3.02-7.976-12.966-5.969c-7.478 1.51-8.37 8.816-8.37 8.816z" opacity="1" fill-rule="evenodd" stroke-width="1" stroke-linecap="butt" stroke-linejoin="miter"/><path d="M-43.374 1045.762l18.542-5.013 1.818 6.277-10.343 10.055zM-21.909 1045.927l4.04-4.32s-1.03-2.744-3.602-1.475c-2.16 1.029-.438 5.795-.438 5.795z" opacity="1" fill-opacity="1" fill-rule="evenodd" stroke-width="1" stroke-linecap="butt" stroke-linejoin="miter"/><rect width=".823" height="6.003" x="-806.753" y="647.586" ry=".412" transform="rotate(-48.715)" opacity="1" fill-opacity="1" stroke-width="3" stroke-linecap="round" stroke-linejoin="round"/><path d="M-33.025 1032.097l-1.317 3.146a.411.411 0 1 0 .76.319l1.285-3.069-.728-.396z" opacity="1" fill-opacity="1" stroke-width="3" stroke-linecap="round" stroke-linejoin="round"/></g><circle r="1" cy="1038.179" cx="-40.386" opacity="1" fill="#73c021" fill-opacity="1" stroke-width="3" stroke-linecap="round" stroke-linejoin="round"/><circle r="1" cy="1037.131" cx="-33.25" opacity="1" fill="#73c021" fill-opacity="1" stroke-width="3" stroke-linecap="round" stroke-linejoin="round"/></g></g></svg>