<svg width="48" height="48" viewBox="0 0 48 48" version="1.1" xmlns="http://www.w3.org/2000/svg"><title>益盟操盘手炒股软件HD</title><defs><filter x="-50%" y="-50%" width="200%" height="200%" filterUnits="objectBoundingBox" id="a"><feOffset dx="0" dy="1" in="SourceAlpha" result="shadowOffsetOuter1"/><feGaussianBlur stdDeviation=".5" in="shadowOffsetOuter1" result="shadowBlurOuter1"/><feColorMatrix values="0 0 0 0 0 0 0 0 0 0 0 0 0 0 0 0 0 0 0.21 0" in="shadowBlurOuter1" type="matrix" result="shadowMatrixOuter1"/><feMerge><feMergeNode in="shadowMatrixOuter1"/><feMergeNode in="SourceGraphic"/></feMerge></filter></defs><g stroke="none" stroke-width="1" fill="none" fill-rule="evenodd"><rect fill="#EE430D" filter="url(#a)" x="5" y="5" width="38" height="38" rx="1"/><path d="M43 7.96v15.557l-3.713-1.851s-5.583 11.298-19.324 15.426C11.48 39.641 7.105 38.644 5 37.509v-12.67c.2-.233.413-.47.636-.709 7.032-7.523 14.772-5.118 14.772-5.118s5.869 1.752-1.145 7.586C12.25 32.43 7.464 29.86 7.464 29.86s7.158.368 9.101-4.746c0-2.1-2.554-1.866-2.554-1.866s-6.338.528-8.313 6.092c-1.974 5.564 7.065 3.965 7.065 3.965s13.118-2.73 19.46-15.102l-3.982-2.339L43 7.96z" fill="#FFF"/></g></svg>