<svg width="48" height="48" viewBox="0 0 48 48" version="1.1" xmlns="http://www.w3.org/2000/svg" xmlns:xlink="http://www.w3.org/1999/xlink"><title>华藏电子书</title><defs><rect id="b" x="6" y="4" width="36" height="40" rx="2"/><filter x="-50%" y="-50%" width="200%" height="200%" filterUnits="objectBoundingBox" id="a"><feOffset dx="0" dy="1" in="SourceAlpha" result="shadowOffsetOuter1"/><feGaussianBlur stdDeviation=".5" in="shadowOffsetOuter1" result="shadowBlurOuter1"/><feColorMatrix values="0 0 0 0 0 0 0 0 0 0 0 0 0 0 0 0 0 0 0.2 0" type="matrix" in="shadowBlurOuter1"/></filter></defs><g stroke="none" stroke-width="1" fill="none" fill-rule="evenodd"><use fill="#000" fill-opacity="1" filter="url(#a)" xlink:href="#b"/><use fill="#2D31C4" fill-rule="evenodd" xlink:href="#b"/><path fill="#090A8A" d="M6 4h8v40H6z"/><path d="M20.96 17.75v.907h5.106v3.265h.96v-3.265h5.157v-.908h-5.158v-1.27h-.959v1.27h-5.105zm9.512-1.465c.545 0 .96-.104 1.219-.31.285-.234.492-.908.596-1.997l-.881-.285c-.065.843-.195 1.361-.376 1.542-.143.13-.39.195-.726.195H28.36c-.363 0-.544-.156-.544-.454v-1.23c1.49-.714 2.786-1.543 3.9-2.489l-.634-.648c-.856.778-1.944 1.503-3.266 2.151v-2.553h-.894v2.968c-.739.324-1.542.635-2.424.92l.519.778a41.42 41.42 0 0 0 1.905-.726v1.01c0 .752.388 1.128 1.166 1.128h2.384zM22.75 13.33v3.409h.907v-4.29a9.803 9.803 0 0 0 1.464-2.086L24.33 10c-.752 1.374-1.93 2.579-3.55 3.641l.297.96c.61-.402 1.167-.83 1.672-1.27zm-1.827 12.644v.816h3.02v.895h.958v-.895h3.33v.908h.804v.53H23.19v1.737h-1.18v-2.177h-.803v2.955h1.983v1.309h-2.514v.777h.738c-.052 1.517-.337 2.553-.855 3.123l.648.506c.57-.687.894-1.892.946-3.629h1.037v.143c-.026 1.477-.26 2.618-.726 3.447l.674.609c.57-1.024.868-2.371.894-4.056v-3.953h5.015c.052 1.685.181 3.059.389 4.121.078.44.181.843.298 1.218a5.962 5.962 0 0 1-1.283 1.53v-.532h-1.14v-1.23h1.127v-2.463H27.31v-1.127h1.14v-.752h-3.692v6.324h3.395l-.22.142.44.7c.648-.389 1.218-.92 1.71-1.594.104.26.208.48.338.687.388.622.764.946 1.101.946.415 0 .739-.803.96-2.41l-.675-.376c-.13 1.166-.285 1.75-.44 1.762-.13 0-.324-.259-.558-.751a4.205 4.205 0 0 1-.246-.661c.61-1.166 1.011-2.657 1.218-4.497l-.79-.168c-.13 1.283-.376 2.397-.739 3.356-.026-.13-.052-.272-.078-.428-.155-.88-.259-2.15-.31-3.797H32.3v-.79h-.648c-.13-.415-.272-.778-.402-1.102l-.79.13c.155.298.298.622.427.972H29.85v-.726h-.66v-.713h3.019v-.816h-3.02v-.816h-.958v.816H24.9v-.83h-.96v.83h-3.02zm5.65 4.562v1.127h-1.05v-1.127h1.05zm-1.05 1.814h2.19v1.075h-2.19V32.35zm0 1.775h1.05v1.231h-1.05v-1.23z" fill="#FFF"/></g></svg>