<svg width="48" height="48" viewBox="0 0 48 48" version="1.1" xmlns="http://www.w3.org/2000/svg"><title>issuu</title><defs><filter x="-50%" y="-50%" width="200%" height="200%" filterUnits="objectBoundingBox" id="a"><feOffset dx="0" dy="1" in="SourceAlpha" result="shadowOffsetOuter1"/><feGaussianBlur stdDeviation=".5" in="shadowOffsetOuter1" result="shadowBlurOuter1"/><feColorMatrix values="0 0 0 0 0 0 0 0 0 0 0 0 0 0 0 0 0 0 0.21 0" in="shadowBlurOuter1" type="matrix" result="shadowMatrixOuter1"/><feMerge><feMergeNode in="shadowMatrixOuter1"/><feMergeNode in="SourceGraphic"/></feMerge></filter></defs><g stroke="none" stroke-width="1" fill="none" fill-rule="evenodd"><rect fill="#EF4D3B" filter="url(#a)" x="5" y="5" width="38" height="38" rx="1"/><path d="M24 29a5 5 0 1 0 0-10 5 5 0 0 0 0 10zm0-2.07a2.93 2.93 0 1 1 0-5.86 2.93 2.93 0 0 1 0 5.86zM13 14.992c0-1.1.902-1.992 2.009-1.992H25l-7.082 3.099c-.507.221-1.133.804-1.393 1.29L13 24v-9.008z" fill="#FFF"/><path d="M24.018 34.989c6.059 0 10.97-4.912 10.97-10.971 0-6.06-4.911-10.971-10.97-10.971-6.06 0-10.971 4.912-10.971 10.97 0 6.06 4.912 10.972 10.97 10.972zm0-2a8.97 8.97 0 1 1 0-17.942 8.97 8.97 0 0 1 0 17.942z" fill="#FFF"/></g></svg>