<svg xmlns="http://www.w3.org/2000/svg" width="48" height="48" viewBox="0 0 48 48" version="1.1"><g stroke="none" stroke-opacity="1" transform="translate(0 -1004.362)"><path d="M29.402 1007.332l-26 5.53v32.25l26 5.767z" opacity=".05" fill="#000" fill-opacity="1" fill-rule="evenodd" stroke-width="1" stroke-linecap="butt" stroke-linejoin="miter"/><rect width="14" height="21" x="30.455" y="1021.865" ry="0" opacity=".05" fill="#000" fill-opacity="1" stroke-width=".5" stroke-linecap="round" stroke-linejoin="round"/><rect ry="0" y="1021.375" x="31" height="21" width="13" opacity=".1" fill="#000" fill-opacity="1" stroke-width=".5" stroke-linecap="round" stroke-linejoin="round"/><path d="M28.994 1006.817l-24.996 5.532v32.248l24.996 5.768z" opacity=".1" fill="#000" fill-opacity="1" fill-rule="evenodd" stroke-width="1" stroke-linecap="butt" stroke-linejoin="miter"/><path d="M28.994 1006.35l-24.996 5.532v32.249l24.996 5.767z" opacity=".15" fill="#000" fill-opacity="1" fill-rule="evenodd" stroke-width="1" stroke-linecap="butt" stroke-linejoin="miter"/><rect width="13" height="21" x="31" y="1020.886" ry="0" opacity=".15" fill="#000" fill-opacity="1" stroke-width=".5" stroke-linecap="round" stroke-linejoin="round"/><path d="M28.994 1005.827l-24.996 5.532v32.248l24.996 5.768z" opacity="1" fill="#0071c3" fill-opacity="1" fill-rule="evenodd" stroke-width="1" stroke-linecap="butt" stroke-linejoin="miter"/><rect ry="0" y="1020.362" x="31" height="21" width="13" opacity="1" fill="#0071c3" fill-opacity="1" stroke-width=".5" stroke-linecap="round" stroke-linejoin="round"/><path d="M16 1018.362a8 9.5 0 0 0-8 9.5 8 9.5 0 0 0 8 9.5 8 9.5 0 0 0 8-9.5 8 9.5 0 0 0-8-9.5zm0 2a6 7.5 0 0 1 6 7.5 6 7.5 0 0 1-6 7.5 6 7.5 0 0 1-6-7.5 6 7.5 0 0 1 6-7.5z" opacity="1" fill="#fff" fill-opacity="1" stroke-width=".5" stroke-linecap="round" stroke-linejoin="round"/><path d="M31 1024.362l4 4.01 9-7.01v3l-8.966 6.986-4-4.043z" fill="#fff" fill-rule="evenodd" stroke-width="1" stroke-linecap="butt" stroke-linejoin="miter"/></g></svg>