<svg width="48" height="48" viewBox="0 0 48 48" version="1.1" xmlns="http://www.w3.org/2000/svg"><title>酷我音乐</title><defs><filter x="-50%" y="-50%" width="200%" height="200%" filterUnits="objectBoundingBox" id="a"><feOffset dx="0" dy="1" in="SourceAlpha" result="shadowOffsetOuter1"/><feGaussianBlur stdDeviation=".5" in="shadowOffsetOuter1" result="shadowBlurOuter1"/><feColorMatrix values="0 0 0 0 0 0 0 0 0 0 0 0 0 0 0 0 0 0 0.21 0" in="shadowBlurOuter1" type="matrix" result="shadowMatrixOuter1"/><feMerge><feMergeNode in="shadowMatrixOuter1"/><feMergeNode in="SourceGraphic"/></feMerge></filter></defs><g transform="translate(0 2)" stroke="none" stroke-width="1" fill="none" fill-rule="evenodd" filter="url(#a)"><path d="M6.79 15.276l21.5-3.394 1.131 23.197L19.237 43l-9.96-7.863c-.436-.344-.829-1.062-.878-1.618L6.79 15.276z" fill="#FFB210"/><path d="M6.79 15.276l11.881 5.092-6.65 6.65c-.39.39-1.1.498-1.585.243l-8.99-4.732c-.486-.256-.58-.79-.202-1.203l5.545-6.05z" fill="#FBF083"/><path d="M24.358 10.142c-1.109-1.112-3.679-3.742-4.562-5.09-.829-1.75 1.434-2.671 2.21-2.992.778-.32 2.047-.79 2.698-1.6.875 5.1-2.072 4.593-2.697 4.593.161.228.364.507.595.817 1.52 2.05 4.248 5.518 4.248 5.518l-.028-.01c.07.105.13.218.183.336.655 1.47-.289 3.317-2.107 4.127-1.818.809-3.822.274-4.476-1.196-.655-1.47.289-3.317 2.107-4.127a4.254 4.254 0 0 1 1.829-.376z" fill="#0095D2"/><path d="M28.29 11.882l11.315 3.394-10.75 15.842-.566-19.236z" fill="#FF9026"/><path d="M39.605 15.276l2.297 3.675c.294.47.078.852-.467.852h-2.961l1.131-4.527z" fill="#FFB20D"/><path d="M18.671 20.368l20.934-5.092V34.65c0 .55-.425 1.15-.941 1.336L19.237 43l-.566-22.632z" fill="#FFF29D"/><rect fill="#FF782C" x="24.895" y="20.368" width="4.417" height="17.403" rx="21"/><rect fill="#FF782C" transform="rotate(-138 31.19 26.088)" x="29.21" y="19.23" width="3.961" height="13.715" rx="21"/><path d="M13.46 9.995c.065-1.193.244-3.985.556-5.17.567-1.36 2.24-.55 2.818-.274.577.276 1.488.754 2.278.71-2.439 3.092-3.652 1.167-3.97.814-.048.207-.102.463-.16.752-.385 1.904-.957 5.211-.957 5.211l-.008-.02a1.816 1.816 0 0 1-.097.274c-.498 1.119-2.023 1.526-3.406.91-1.384-.616-2.102-2.022-1.604-3.14.498-1.118 2.023-1.526 3.407-.91.462.206.85.5 1.144.843z" fill="#0095D2"/><rect fill="#FF782C" transform="rotate(-59 31.62 31.603)" x="29.64" y="26.268" width="3.961" height="10.672" rx="21"/></g></svg>